<svg width="25" height="24" viewBox="0 0 25 24" fill="none" xmlns="http://www.w3.org/2000/svg">
<path fill-rule="evenodd" clip-rule="evenodd" d="M17.688 21C18.7489 21 19.7663 20.5786 20.5164 19.8284C21.2666 19.0783 21.688 18.0609 21.688 17C21.688 15.527 20.355 10.86 17.688 3H15.688L17.688 13C16.6271 13 15.6097 13.4214 14.8596 14.1716C14.1094 14.9217 13.688 15.9391 13.688 17C13.688 18.0609 14.1094 19.0783 14.8596 19.8284C15.6097 20.5786 16.6271 21 17.688 21ZM7.68799 21C8.74885 21 9.76627 20.5786 10.5164 19.8284C11.2666 19.0783 11.688 18.0609 11.688 17C11.688 15.527 10.355 10.86 7.68799 3H5.68799L7.68799 13C6.62712 13 5.60971 13.4214 4.85956 14.1716C4.10942 14.9217 3.68799 15.9391 3.68799 17C3.68799 18.0609 4.10942 19.0783 4.85956 19.8284C5.60971 20.5786 6.62712 21 7.68799 21Z" fill="#FFC9C9"/>
</svg>
