<svg width="25" height="24" viewBox="0 0 25 24" fill="none" xmlns="http://www.w3.org/2000/svg">
<path fill-rule="evenodd" clip-rule="evenodd" d="M7.68799 21C6.62712 21 5.60971 20.5786 4.85956 19.8284C4.10942 19.0783 3.68799 18.0609 3.68799 17C3.68799 15.527 5.02099 10.86 7.68799 3H9.68799L7.68799 13C8.74885 13 9.76627 13.4214 10.5164 14.1716C11.2666 14.9217 11.688 15.9391 11.688 17C11.688 18.0609 11.2666 19.0783 10.5164 19.8284C9.76627 20.5786 8.74885 21 7.68799 21ZM17.688 21C16.6271 21 15.6097 20.5786 14.8596 19.8284C14.1094 19.0783 13.688 18.0609 13.688 17C13.688 15.527 15.021 10.86 17.688 3H19.688L17.688 13C18.7489 13 19.7663 13.4214 20.5164 14.1716C21.2666 14.9217 21.688 15.9391 21.688 17C21.688 18.0609 21.2666 19.0783 20.5164 19.8284C19.7663 20.5786 18.7489 21 17.688 21Z" fill="#FFC9C9"/>
</svg>
