<svg width="50" height="52" viewBox="0 0 50 52" fill="none" xmlns="http://www.w3.org/2000/svg">
<path fill-rule="evenodd" clip-rule="evenodd" d="M12.9694 0.70752C12.757 0.70752 12.5532 0.791923 12.403 0.942162C12.2527 1.0924 12.1683 1.29617 12.1683 1.50864V3.912H1.75376C1.54129 3.912 1.33752 3.9964 1.18728 4.14664C1.03704 4.29688 0.952637 4.50065 0.952637 4.71312C0.952637 12.4087 3.63799 18.1832 7.19497 22.2224C10.7199 26.2232 15.062 28.5352 18.5517 29.4918C18.8689 29.8491 19.1925 30.1936 19.5322 30.4996C20.2532 31.1485 21.0415 31.658 21.8699 32.0377C21.8968 32.12 21.9368 32.1974 21.9885 32.2669C21.9885 32.2669 22.2176 32.5745 22.4371 32.9895C22.6534 33.4061 22.7912 33.9252 22.7704 34.0822C22.7255 34.4187 22.3233 34.9058 21.8378 35.2647C21.5396 35.4848 21.2209 35.6758 20.8861 35.835C20.7809 35.8833 20.6875 35.9539 20.6121 36.0417C20.5721 36.0738 20.4936 36.0738 20.4647 36.1058C20.3413 36.244 20.2485 36.4067 20.1923 36.5833C20.097 36.8671 20.0515 37.1652 20.0578 37.4645C20.0578 37.7593 20.0866 38.0477 20.1923 38.3474C20.2196 38.4243 20.2885 38.5108 20.3333 38.5925C20.3141 40.4799 20.093 41.3259 19.694 41.9188C19.2839 42.526 18.502 43.0596 17.3003 44.1218C17.2866 44.1326 17.2732 44.1438 17.2602 44.1555L17.2442 44.1715C17.1901 44.2194 17.1426 44.2743 17.1032 44.3349C17.0954 44.3481 17.0879 44.3614 17.0808 44.375C17.0747 44.3845 17.0688 44.3941 17.0632 44.4038C17.0599 44.4107 17.0567 44.4177 17.0536 44.4247C17.0199 44.4951 16.9966 44.5702 16.9847 44.6474C16.9846 44.6538 16.9846 44.6602 16.9847 44.6666C16.9793 44.7005 16.976 44.7348 16.975 44.7691V47.1725H16.4111C16.1364 47.1767 15.8743 47.2878 15.6804 47.4823C15.4865 47.6768 15.3761 47.9393 15.3728 48.214V50.941C15.3728 51.5018 15.8535 51.9792 16.4111 51.9792H33.5614C33.8358 51.9759 34.0979 51.8654 34.2919 51.6715C34.4859 51.4775 34.5964 51.2153 34.5997 50.941V48.214C34.5997 47.6532 34.119 47.1725 33.5614 47.1725H33.0407V44.7691C33.0411 44.6159 32.9975 44.4658 32.9152 44.3366C32.8328 44.2074 32.7151 44.1045 32.5761 44.0401C31.4385 43.0451 30.6742 42.5052 30.2785 41.9188C29.8779 41.3259 29.6584 40.4799 29.6392 38.5893C29.684 38.5076 29.7529 38.4211 29.7802 38.3442C29.8747 38.0603 29.9192 37.7621 29.9115 37.4629C29.9115 37.1665 29.8843 36.8765 29.777 36.5769C29.7192 36.4018 29.6253 36.2407 29.5014 36.1042C29.3904 35.9923 29.2572 35.905 29.1104 35.8479C29.1104 35.8479 28.6137 35.5947 28.109 35.2086C27.6059 34.824 27.215 34.2921 27.1957 34.0982C27.1781 33.922 27.3255 33.398 27.5434 32.9847C27.6746 32.7334 27.8229 32.4914 27.9872 32.2604C28.037 32.1932 28.0759 32.1186 28.1026 32.0393C28.9558 31.6474 29.7445 31.1282 30.4419 30.4996C30.78 30.1936 31.1036 29.8491 31.4192 29.4902C34.9089 28.5352 39.2542 26.2216 42.7775 22.2224C46.3345 18.1832 49.0199 12.4087 49.0199 4.71312C49.0199 4.50065 48.9355 4.29688 48.7852 4.14664C48.635 3.9964 48.4312 3.912 48.2187 3.912H37.8042V1.50864C37.8042 1.29617 37.7198 1.0924 37.5695 0.942162C37.4193 0.791923 37.2155 0.70752 37.0031 0.70752H12.9694ZM13.7706 2.30976H36.2019V5.39247H13.7706V2.30976ZM2.62377 5.51424H12.1683V6.19359C12.1681 6.2198 12.1692 6.246 12.1715 6.2721C12.1715 6.5557 12.1827 6.83289 12.1876 7.11648H5.43891C5.22644 7.11648 5.02267 7.20089 4.87243 7.35113C4.72219 7.50136 4.63779 7.70513 4.63779 7.9176C4.63779 12.5657 6.73993 16.5761 9.20418 19.63C11.6364 22.6502 14.4034 24.7459 16.0602 25.7137C16.3293 26.2456 16.6113 26.7471 16.9078 27.2294C13.644 25.8835 10.732 23.8079 8.39505 21.1617C5.20338 17.5343 2.81124 12.4039 2.62377 5.51424ZM37.8042 5.51424H47.3487C47.1629 12.4055 44.7691 17.5343 41.5759 21.1617C39.2389 23.8079 36.3269 25.8835 33.0631 27.2294C33.358 26.7487 33.64 26.244 33.9075 25.7137C35.5642 24.7475 38.3329 22.6502 40.7683 19.6316C43.231 16.5761 45.3347 12.5641 45.3347 7.9176C45.3347 7.70513 45.2503 7.50136 45.1001 7.35113C44.9498 7.20089 44.7461 7.11648 44.5336 7.11648H37.785C37.7898 6.80725 37.8042 6.50443 37.8042 6.19359V5.51424ZM13.8395 6.99471H36.133C36.0401 13.5959 34.9201 19.6636 32.9654 24.0153C31.948 26.2841 30.7223 28.0914 29.37 29.3075C28.0193 30.522 26.5725 31.1501 24.9862 31.1501C23.4 31.1501 21.9532 30.522 20.6025 29.3075C19.2502 28.0914 18.0229 26.2841 17.0039 24.0153C15.0492 19.662 13.9308 13.5975 13.8395 6.99471ZM6.40987 8.71872H12.2212C12.4391 14.0221 13.3396 18.9042 14.8168 22.8793C13.2051 21.6329 11.7413 20.2062 10.4539 18.627C8.29891 15.9544 6.647 12.5321 6.40987 8.71872ZM37.7497 8.71872H43.5626C43.3255 12.5321 41.672 15.9544 39.5186 18.627C38.0766 20.4135 36.5016 21.8299 35.1509 22.8825C36.6281 18.9074 37.5318 14.0237 37.7497 8.71872ZM24.0009 32.8405C24.6322 32.9302 25.3371 32.9302 25.9684 32.8405C25.781 33.2731 25.5454 33.6896 25.6031 34.2568C25.7105 35.3303 26.4956 35.9889 27.1365 36.4791C27.7197 36.9262 28.1827 37.1553 28.2789 37.205C28.2933 37.2739 28.3109 37.3508 28.3109 37.4645C28.3109 37.5062 28.3029 37.519 28.2997 37.5591H21.6728C21.668 37.519 21.66 37.5062 21.66 37.4645C21.66 37.3524 21.676 37.2771 21.692 37.2082C21.8138 37.1505 22.2288 36.9726 22.7928 36.5545C23.4337 36.0786 24.2108 35.3784 24.3566 34.2985C24.4367 33.7121 24.1931 33.2827 24.0009 32.8405ZM21.7754 39.1613H28.1971C28.2773 40.7075 28.4038 42.0101 28.9486 42.816C29.2466 43.2598 29.777 43.6203 30.1711 43.968H19.8014C20.1956 43.6203 20.7259 43.2598 21.0239 42.816C21.5687 42.0101 21.6952 40.7075 21.7754 39.1613ZM18.5773 45.5703H31.4385V47.1725H18.5773V45.5703ZM16.975 48.7747H32.9975V50.377H16.975V48.7747Z" fill="white"/>
</svg>
