<svg width="28" height="27" viewBox="0 0 28 27" fill="none" xmlns="http://www.w3.org/2000/svg">
<path d="M9.55188 20.8951C9.00485 21.1131 8.49349 20.9149 8.25961 20.7802C7.86718 20.5542 7.59762 20.1657 7.51834 19.7218L7.24879 18.2035L4.64443 21.8267C4.40659 22.1041 4.61668 22.7423 5.19146 22.6195L8.41421 21.7593L9.28233 24.982C9.34575 25.319 9.96018 25.6044 10.2416 25.0613L12.0809 20.9823L11.4348 20.2173L9.55188 20.8951ZM24.1751 21.8267L21.1744 17.6565L20.6273 17.7556L20.2745 19.7218C20.1953 20.1697 19.9218 20.5542 19.5293 20.7841C19.2954 20.9189 18.8871 21.1052 18.241 20.8991L16.3977 20.2331L18.578 25.0613C18.6691 25.3586 19.3034 25.5964 19.5372 24.982L20.3974 21.7593L23.6202 22.6195C24.2742 22.7027 24.3733 22.0843 24.1751 21.8267ZM13.9004 5.9032C11.078 5.9032 8.7789 8.20233 8.7789 11.0247C8.7789 13.8471 11.078 16.1462 13.9004 16.1462C16.7228 16.1462 19.0219 13.8471 19.0219 11.0247C19.0219 8.19836 16.7228 5.9032 13.9004 5.9032ZM16.0331 14.0056L13.9004 12.4557L11.7678 14.0056L12.5844 11.4964L10.4517 9.9465H13.0878L13.9044 7.43727L14.721 9.9465H17.357L15.2244 11.4964L16.0331 14.0056Z" fill="white"/>
<path d="M19.2716 19.5393L19.7473 16.8676L22.4151 16.3919C22.9066 16.2294 22.859 15.8567 22.8075 15.714L21.8878 13.1652L23.961 11.4131C24.298 11.0246 24.076 10.7273 23.961 10.6322L21.8878 8.88008L22.8075 6.32725C22.859 6.18454 22.8868 5.77229 22.4151 5.6494L19.7473 5.17372L19.2716 2.50197C19.2438 2.3553 19.0179 1.97079 18.5937 2.10953L16.0409 3.02919L14.2888 0.956004C14.0946 0.726091 13.7021 0.726091 13.5079 0.956004L11.7558 3.02919L9.20298 2.10953C8.97703 2.02232 8.60045 2.12143 8.52514 2.50197L8.04945 5.17372L5.37771 5.6494C4.95752 5.73661 4.90202 6.14887 4.98527 6.32725L5.90492 8.88008L3.83174 10.6322C3.51065 10.9493 3.67318 11.2981 3.83174 11.4131L5.90492 13.1612L4.98527 15.714C4.93374 15.8567 4.89013 16.2611 5.37771 16.3919L8.04945 16.8676L8.52514 19.5393C8.64802 20.0031 9.06028 19.9833 9.20298 19.9318L11.7558 19.0121L13.5079 21.0853C13.603 21.2002 13.9281 21.4262 14.2888 21.0853L16.0409 19.0121L18.5937 19.9318C19.0853 20.0467 19.2438 19.69 19.2716 19.5393ZM13.9003 17.1688C10.5111 17.1688 7.75612 14.4138 7.75612 11.0246C7.75612 7.63537 10.5111 4.88038 13.9003 4.88038C17.2896 4.88038 20.0446 7.63537 20.0446 11.0246C20.0446 14.4138 17.2896 17.1688 13.9003 17.1688Z" fill="white"/>
</svg>
